#define argstack_width 24
#define argstack_height 24
static char argstack_bits[] = {
   0x00, 0x00, 0x00, 0x00, 0x00, 0x00, 0x08, 0xff, 0x7f, 0x14, 0x01, 0x40,
   0x22, 0x01, 0x40, 0x3e, 0xff, 0x7f, 0x22, 0x01, 0x40, 0x22, 0x01, 0x40,
   0x00, 0xff, 0x7f, 0x1e, 0x01, 0x40, 0x22, 0x01, 0x40, 0x22, 0xff, 0x7f,
   0x1e, 0x01, 0x40, 0x12, 0x01, 0x40, 0x22, 0xff, 0x7f, 0x00, 0x01, 0x40,
   0x1c, 0x01, 0x40, 0x22, 0xff, 0x7f, 0x02, 0x01, 0x40, 0x32, 0x00, 0x00,
   0x22, 0x55, 0x55, 0x3c, 0x00, 0x00, 0x00, 0x01, 0x40, 0x00, 0x00, 0x00};
