#define clipboard_width 24
#define clipboard_height 24
static char clipboard_bits[] = {
   0x00, 0x00, 0x00, 0x00, 0x00, 0x00, 0x00, 0x00, 0x00, 0x00, 0x00, 0x00,
   0x00, 0x00, 0x00, 0x00, 0x00, 0x00, 0x00, 0x00, 0x00, 0x00, 0x00, 0x00,
   0x80, 0xff, 0x1f, 0x00, 0x00, 0x20, 0xfe, 0xff, 0x47, 0x01, 0x00, 0x48,
   0x01, 0x00, 0x48, 0x01, 0x00, 0x48, 0xf1, 0xff, 0x47, 0x02, 0x00, 0x20,
   0xfc, 0xff, 0x1f, 0x00, 0x00, 0x00, 0x00, 0x00, 0x00, 0x00, 0x00, 0x00,
   0x00, 0x00, 0x00, 0x00, 0x00, 0x00, 0x00, 0x00, 0x00, 0x00, 0x00, 0x00};
