#define execution_width 24
#define execution_height 24
static char execution_bits[] = {
   0x00, 0x00, 0x00, 0xf8, 0x1f, 0x00, 0x18, 0x10, 0x00, 0x18, 0x10, 0x00,
   0x18, 0x10, 0x00, 0x18, 0x10, 0x00, 0x18, 0x10, 0x00, 0x18, 0x30, 0x00,
   0x18, 0x48, 0x00, 0x18, 0x84, 0x00, 0x18, 0x84, 0x00, 0x18, 0x48, 0x00,
   0x18, 0x30, 0x00, 0x18, 0x00, 0x00, 0x18, 0x00, 0x00, 0x18, 0x00, 0x00,
   0x18, 0x00, 0x00, 0x18, 0x00, 0x00, 0x18, 0x00, 0x00, 0x18, 0x00, 0x00,
   0xff, 0xff, 0x0f, 0xff, 0xff, 0x0f, 0x03, 0x00, 0x0c, 0x03, 0x00, 0x0c};
