#define kill_width 24
#define kill_height 24
static char kill_bits[] = {
   0x00, 0x00, 0x00, 0x00, 0x7e, 0x00, 0x00, 0xff, 0x00, 0x80, 0xff, 0x01,
   0x80, 0xff, 0x01, 0x80, 0x18, 0x01, 0x80, 0x18, 0x01, 0x80, 0x18, 0x01,
   0x80, 0xff, 0x01, 0x00, 0xe7, 0x00, 0x00, 0xe7, 0x00, 0x00, 0x7e, 0x00,
   0x00, 0x5a, 0x00, 0x00, 0x42, 0x00, 0x18, 0x3c, 0x18, 0x78, 0x00, 0x1e,
   0xf0, 0xc3, 0x0f, 0x00, 0x7e, 0x00, 0x00, 0x7e, 0x00, 0xf0, 0xc3, 0x0f,
   0x78, 0x00, 0x1e, 0x18, 0x00, 0x18, 0x00, 0x00, 0x00, 0x00, 0x00, 0x00};
