#define load-cb-term_width 24
#define load-cb-term_height 24
static char load-cb-term_bits[] = {
   0x04, 0x00, 0x20, 0x32, 0x01, 0x50, 0x89, 0x94, 0xa4, 0x9d, 0x94, 0xa4,
   0x89, 0x08, 0xa5, 0x89, 0x14, 0xa2, 0x09, 0x55, 0x92, 0x02, 0x20, 0x41,
   0x04, 0x00, 0x20, 0x00, 0x81, 0x00, 0x40, 0xa5, 0x02, 0x80, 0xc3, 0x01,
   0x00, 0x81, 0x00, 0x00, 0x00, 0x00, 0xfe, 0xff, 0x7f, 0x06, 0x00, 0x60,
   0x42, 0x9c, 0x48, 0xa2, 0xa4, 0x4d, 0x12, 0xa5, 0x4a, 0xf2, 0x9d, 0x48,
   0x12, 0x95, 0x48, 0x12, 0xa5, 0x48, 0x06, 0x00, 0x60, 0xfe, 0xff, 0x7f};
