#define proc-step_width 24
#define proc-step_height 24
static unsigned char proc-step_bits[] = {
   0x00, 0x00, 0x00, 0x00, 0x7c, 0x00, 0x80, 0x83, 0x03, 0x40, 0x00, 0x04,
   0x20, 0x00, 0x08, 0x10, 0x00, 0x10, 0x08, 0x00, 0x20, 0x04, 0xc0, 0x40,
   0x04, 0xc0, 0x41, 0x04, 0x80, 0x43, 0x02, 0x00, 0x87, 0xe2, 0xff, 0x8f,
   0xe2, 0xff, 0x9f, 0xe2, 0xff, 0x8f, 0x02, 0x00, 0x87, 0x04, 0x80, 0x43,
   0x04, 0xc0, 0x41, 0x04, 0xc0, 0x40, 0x08, 0x00, 0x20, 0x10, 0x00, 0x10,
   0x20, 0x00, 0x08, 0x40, 0x00, 0x04, 0x80, 0x83, 0x03, 0x00, 0x7c, 0x00};
