#define proc-run_width 24
#define proc-run_height 24
static unsigned char proc-run_bits[] = {
   0x00, 0x00, 0x00, 0x00, 0x7c, 0x00, 0x80, 0x83, 0x03, 0x40, 0x00, 0x04,
   0x20, 0x00, 0x08, 0x10, 0x00, 0x10, 0x08, 0x00, 0x20, 0x04, 0x98, 0x40,
   0x04, 0x38, 0x41, 0x04, 0x70, 0x42, 0x02, 0xe0, 0x84, 0xe2, 0xff, 0x89,
   0xe2, 0xff, 0x93, 0xe2, 0xff, 0x89, 0x02, 0xe0, 0x84, 0x04, 0x70, 0x42,
   0x04, 0x38, 0x41, 0x04, 0x98, 0x40, 0x08, 0x00, 0x20, 0x10, 0x00, 0x10,
   0x20, 0x00, 0x08, 0x40, 0x00, 0x04, 0x80, 0x83, 0x03, 0x00, 0x7c, 0x00};
