#define run-until-parent_width 24
#define run-until-parent_height 24
static char run-until-parent_bits[] = {
   0x00, 0x00, 0x00, 0x00, 0x00, 0x00, 0x00, 0x00, 0x00, 0x00, 0x80, 0x01,
   0x00, 0x80, 0x03, 0x00, 0x00, 0x07, 0x00, 0x00, 0x0e, 0x00, 0xf8, 0x1f,
   0x00, 0xf8, 0x3f, 0x00, 0xf8, 0x1f, 0xa0, 0x38, 0x0e, 0x40, 0x39, 0x07,
   0x80, 0xba, 0x03, 0x00, 0xbd, 0x01, 0xfc, 0x3f, 0x00, 0xfc, 0x3f, 0x00,
   0xfc, 0x3f, 0x00, 0x00, 0x05, 0x00, 0x80, 0x02, 0x00, 0x40, 0x01, 0x00,
   0xa0, 0x00, 0x00, 0x00, 0x00, 0x00, 0x00, 0x00, 0x00, 0x00, 0x00, 0x00};
