#define run_width 24
#define run_height 24
static char run_bits[] = {
   0x00, 0x00, 0x00, 0x00, 0x00, 0x00, 0x00, 0x00, 0x00, 0x00, 0x00, 0x00,
   0x00, 0x00, 0x00, 0x00, 0x00, 0x00, 0x00, 0x00, 0x00, 0x00, 0x98, 0x04,
   0x00, 0x38, 0x09, 0x00, 0x70, 0x12, 0x00, 0xe0, 0x24, 0xfe, 0xff, 0x49,
   0xfe, 0xff, 0x93, 0xfe, 0xff, 0x49, 0x00, 0xe0, 0x24, 0x00, 0x70, 0x12,
   0x00, 0x38, 0x09, 0x00, 0x98, 0x04, 0x00, 0x00, 0x00, 0x00, 0x00, 0x00,
   0x00, 0x00, 0x00, 0x00, 0x00, 0x00, 0x00, 0x00, 0x00, 0x00, 0x00, 0x00};
