#define selected_width 16
#define selected_height 16
static unsigned char selected_bits[] = {
   0x00, 0x00, 0xfe, 0x7f, 0xfe, 0x7f, 0x1e, 0x78, 0x3e, 0x7c, 0x76, 0x6e,
   0xe6, 0x67, 0xc6, 0x63, 0xc6, 0x63, 0xe6, 0x67, 0x76, 0x6e, 0x3e, 0x7c,
   0x1e, 0x78, 0xfe, 0x7f, 0xfe, 0x7f, 0x00, 0x00};
