#define step_width 24
#define step_height 24
static char step_bits[] = {
   0x00, 0x00, 0x00, 0x00, 0x00, 0x00, 0x00, 0x00, 0x00, 0x00, 0x00, 0x00,
   0x00, 0x00, 0x00, 0x00, 0x00, 0x00, 0x00, 0x00, 0x00, 0x00, 0xc0, 0x00,
   0x00, 0xc0, 0x01, 0x00, 0x80, 0x03, 0x00, 0x00, 0x07, 0xf0, 0xff, 0x0f,
   0xf0, 0xff, 0x1f, 0xf0, 0xff, 0x0f, 0x00, 0x00, 0x07, 0x00, 0x80, 0x03,
   0x00, 0xc0, 0x01, 0x00, 0xc0, 0x00, 0x00, 0x00, 0x00, 0x00, 0x00, 0x00,
   0x00, 0x00, 0x00, 0x00, 0x00, 0x00, 0x00, 0x00, 0x00, 0x00, 0x00, 0x00};
