#define step-over_width 24
#define step-over_height 24
static char step-over_bits[] = {
   0x00, 0x00, 0x00, 0x00, 0x00, 0x00, 0x00, 0x00, 0x00, 0x00, 0x00, 0x00,
   0x00, 0x00, 0x00, 0x00, 0x00, 0x00, 0x00, 0x00, 0x00, 0x00, 0xca, 0x00,
   0x00, 0xd4, 0x01, 0x00, 0xa8, 0x03, 0x00, 0x50, 0x07, 0xf0, 0xff, 0x0f,
   0xf0, 0xff, 0x1f, 0xf0, 0xff, 0x0f, 0x00, 0x50, 0x07, 0x00, 0xa8, 0x03,
   0x00, 0xd4, 0x01, 0x00, 0xca, 0x00, 0x00, 0x00, 0x00, 0x00, 0x00, 0x00,
   0x00, 0x00, 0x00, 0x00, 0x00, 0x00, 0x00, 0x00, 0x00, 0x00, 0x00, 0x00};
