#define halt_width 24
#define halt_height 24
static char halt_bits[] = {
   0x00, 0x00, 0x00, 0x00, 0x00, 0x00, 0x00, 0x00, 0x00, 0x00, 0x00, 0x00,
   0x00, 0x18, 0x00, 0x00, 0x5b, 0x00, 0x00, 0xdb, 0x00, 0x00, 0xdb, 0x00,
   0x60, 0xdb, 0x00, 0x60, 0xdb, 0x00, 0x60, 0xdb, 0x00, 0x60, 0xdb, 0x00,
   0x60, 0xdb, 0x00, 0x60, 0xdb, 0x00, 0x60, 0xdb, 0x00, 0xe0, 0xff, 0x08,
   0xe0, 0xff, 0x1e, 0xe0, 0xff, 0x1f, 0xe0, 0xff, 0x0f, 0xe0, 0xff, 0x03,
   0xc0, 0xff, 0x00, 0xc0, 0x3f, 0x00, 0xc0, 0x1f, 0x00, 0xc0, 0x1f, 0x00};
