#define tb-run_width 24
#define tb-run_height 24
static unsigned char tb-run_bits[] = {
   0x00, 0x00, 0x00, 0xff, 0xff, 0xff, 0x01, 0x00, 0x80, 0x01, 0x26, 0x81,
   0x01, 0x4e, 0x82, 0x01, 0x9c, 0x84, 0x01, 0x38, 0x89, 0xfd, 0x7f, 0x92,
   0xfd, 0xff, 0xa4, 0xfd, 0x7f, 0x92, 0x01, 0x38, 0x89, 0x01, 0x9c, 0x84,
   0x01, 0x4e, 0x82, 0x01, 0x26, 0x81, 0x01, 0x00, 0x80, 0xff, 0xff, 0xff,
   0x08, 0x20, 0x10, 0x08, 0x20, 0x10, 0x3e, 0xf8, 0x7c, 0x22, 0x88, 0x44,
   0x22, 0x88, 0x44, 0x22, 0x88, 0x44, 0x3e, 0xf8, 0x7c, 0x00, 0x00, 0x00};
