#define tb-step_width 24
#define tb-step_height 24
static unsigned char tb-step_bits[] = {
   0x00, 0x00, 0x00, 0xff, 0xff, 0xff, 0x01, 0x00, 0x80, 0x01, 0xc0, 0x80,
   0x01, 0xc0, 0x81, 0x01, 0x80, 0x83, 0x01, 0x00, 0x87, 0xf9, 0xff, 0x8f,
   0xf9, 0xff, 0x9f, 0xf9, 0xff, 0x8f, 0x01, 0x00, 0x87, 0x01, 0x80, 0x83,
   0x01, 0xc0, 0x81, 0x01, 0xc0, 0x80, 0x01, 0x00, 0x80, 0xff, 0xff, 0xff,
   0x08, 0x20, 0x10, 0x08, 0x20, 0x10, 0x3e, 0xf8, 0x7c, 0x22, 0x88, 0x44,
   0x22, 0x88, 0x44, 0x22, 0x88, 0x44, 0x3e, 0xf8, 0x7c, 0x00, 0x00, 0x00};
