#define tb-stop_width 24
#define tb-stop_height 24
static unsigned char tb-stop_bits[] = {
   0x00, 0x00, 0x00, 0xff, 0xff, 0xff, 0x01, 0x00, 0x80, 0x01, 0x00, 0x80,
   0x01, 0xe7, 0x80, 0x01, 0xe7, 0x80, 0x01, 0xe7, 0x80, 0x01, 0xe7, 0x80,
   0x01, 0xe7, 0x80, 0x01, 0xe7, 0x80, 0x01, 0xe7, 0x80, 0x01, 0xe7, 0x80,
   0x01, 0xe7, 0x80, 0x01, 0x00, 0x80, 0x01, 0x00, 0x80, 0xff, 0xff, 0xff,
   0x10, 0x20, 0x10, 0x10, 0x20, 0x10, 0x7c, 0xf8, 0x7c, 0x44, 0x88, 0x44,
   0x44, 0x88, 0x44, 0x44, 0x88, 0x44, 0x7c, 0xf8, 0x7c, 0x00, 0x00, 0x00};
