#define tool-stop_width 24
#define tool-stop_height 24
static unsigned char tool-stop_bits[] = {
   0x00, 0x1c, 0x00, 0x00, 0x1c, 0x00, 0x00, 0x1c, 0x00, 0x00, 0x1c, 0x00,
   0xf8, 0xff, 0x1f, 0xf8, 0xff, 0x1f, 0xf8, 0xff, 0x1f, 0x08, 0x00, 0x10,
   0x08, 0x00, 0x10, 0x08, 0xe7, 0x10, 0x08, 0xe7, 0x10, 0x08, 0xe7, 0x10,
   0x08, 0xe7, 0x10, 0x08, 0xe7, 0x10, 0x08, 0xe7, 0x10, 0x08, 0xe7, 0x10,
   0x08, 0xe7, 0x10, 0x08, 0xe7, 0x10, 0x08, 0x00, 0x10, 0x08, 0x00, 0x10,
   0xf8, 0xff, 0x1f, 0x00, 0x00, 0x00, 0x00, 0x00, 0x00, 0x00, 0x00, 0x00};
