#define tool-run_width 24
#define tool-run_height 24
static unsigned char tool-run_bits[] = {
   0x00, 0x38, 0x00, 0x00, 0x38, 0x00, 0x00, 0x38, 0x00, 0x00, 0x38, 0x00,
   0xf8, 0xff, 0x7f, 0xf8, 0xff, 0x7f, 0xf8, 0xff, 0x7f, 0x08, 0x00, 0x40,
   0x08, 0x4c, 0x40, 0x08, 0x9c, 0x40, 0x08, 0x38, 0x41, 0x08, 0x70, 0x42,
   0xc8, 0xff, 0x44, 0xc8, 0xff, 0x49, 0xc8, 0xff, 0x44, 0x08, 0x70, 0x42,
   0x08, 0x38, 0x41, 0x08, 0x9c, 0x40, 0x08, 0x4c, 0x40, 0x08, 0x00, 0x40,
   0xf8, 0xff, 0x7f, 0x00, 0x00, 0x00, 0x00, 0x00, 0x00, 0x00, 0x00, 0x00};
