#define tool-step_width 24
#define tool-step_height 24
static unsigned char tool-step_bits[] = {
   0x00, 0x1c, 0x00, 0x00, 0x1c, 0x00, 0x00, 0x1c, 0x00, 0x00, 0x1c, 0x00,
   0xf8, 0xff, 0x1f, 0xf8, 0xff, 0x1f, 0xf8, 0xff, 0x1f, 0x08, 0x00, 0x10,
   0x08, 0x18, 0x10, 0x08, 0x38, 0x10, 0x08, 0x70, 0x10, 0x08, 0xe0, 0x10,
   0xc8, 0xff, 0x11, 0xc8, 0xff, 0x13, 0xc8, 0xff, 0x11, 0x08, 0xe0, 0x10,
   0x08, 0x70, 0x10, 0x08, 0x38, 0x10, 0x08, 0x18, 0x10, 0x08, 0x00, 0x10,
   0xf8, 0xff, 0x1f, 0x00, 0x00, 0x00, 0x00, 0x00, 0x00, 0x00, 0x00, 0x00};
