#define travstack_width 24
#define travstack_height 24
static char travstack_bits[] = {
   0x00, 0x00, 0x00, 0x3e, 0x00, 0x00, 0x08, 0xff, 0x7f, 0x08, 0x01, 0x40,
   0x08, 0x01, 0x40, 0x08, 0xff, 0x7f, 0x00, 0x01, 0x40, 0x1e, 0x01, 0x40,
   0x22, 0xff, 0x7f, 0x1e, 0x01, 0x40, 0x12, 0x01, 0x40, 0x22, 0xff, 0x7f,
   0x08, 0x01, 0x40, 0x14, 0x01, 0x40, 0x22, 0xff, 0x7f, 0x3e, 0x01, 0x40,
   0x22, 0x01, 0x40, 0x22, 0xff, 0x7f, 0x00, 0x01, 0x40, 0x22, 0x00, 0x00,
   0x22, 0x55, 0x55, 0x14, 0x00, 0x00, 0x14, 0x01, 0x40, 0x08, 0x00, 0x00};
