#define unknown_width 16
#define unknown_height 16
static unsigned char unknown_bits[] = {
   0xc0, 0x07, 0xe0, 0x0f, 0x30, 0x18, 0x18, 0x30, 0x00, 0x30, 0x00, 0x30,
   0x00, 0x18, 0x00, 0x0c, 0x00, 0x06, 0x00, 0x03, 0x80, 0x01, 0x80, 0x01,
   0x00, 0x00, 0x00, 0x00, 0x80, 0x01, 0x80, 0x01};
