#define varview_width 24
#define varview_height 24
static char varview_bits[] = {
   0x00, 0x00, 0x00, 0x00, 0x00, 0x00, 0x00, 0x00, 0x00, 0x80, 0xff, 0x01,
   0xf8, 0xff, 0x3f, 0x7e, 0x00, 0x7e, 0x06, 0x00, 0xc0, 0x03, 0xfe, 0x00,
   0xc0, 0x7d, 0x07, 0x30, 0xfe, 0x18, 0x08, 0xff, 0x21, 0x04, 0xff, 0x41,
   0x02, 0xff, 0x81, 0x04, 0xff, 0x41, 0x08, 0xff, 0x21, 0x30, 0xfe, 0x18,
   0xc0, 0x7d, 0x07, 0x00, 0xfe, 0x00, 0x00, 0x00, 0x00, 0x00, 0x00, 0x00,
   0x00, 0x00, 0x00, 0x00, 0x00, 0x00, 0x00, 0x00, 0x00, 0x00, 0x00, 0x00};
